<?xml version="1.0" standalone="no"?>
<!DOCTYPE svg PUBLIC "-//W3C//DTD SVG 20010904//EN"
 "http://www.w3.org/TR/2001/REC-SVG-20010904/DTD/svg10.dtd">
<svg version="1.0" xmlns="http://www.w3.org/2000/svg"
 width="1024.000000pt" height="1024.000000pt" viewBox="0 0 1024.000000 1024.000000"
 preserveAspectRatio="xMidYMid meet">

<g transform="translate(0.000000,1024.000000) scale(0.100000,-0.100000)"
fill="#000000" stroke="none">
<path d="M4180 9798 c-131 -101 -386 -355 -469 -468 -34 -47 -81 -123 -104
-168 -37 -76 -42 -92 -45 -175 -5 -110 16 -182 83 -294 24 -39 49 -89 56 -111
12 -41 9 -205 -4 -218 -4 -4 -25 9 -45 30 l-39 37 -12 -41 c-6 -22 -14 -69
-18 -105 -3 -36 -9 -65 -12 -65 -3 0 -35 10 -70 22 -129 46 -161 107 -142 273
16 140 14 182 -10 254 -43 126 -154 260 -302 364 -125 88 -120 90 -66 -20 27
-54 61 -143 76 -198 24 -89 27 -117 27 -250 0 -123 -4 -165 -22 -232 -35 -130
-32 -151 38 -260 77 -118 142 -248 170 -338 12 -38 26 -80 31 -93 11 -28 7
-26 -76 39 -33 25 -80 59 -103 75 -24 15 -62 55 -85 88 -122 181 -300 368
-503 527 l-109 86 95 -191 c139 -278 197 -452 207 -621 l6 -99 -79 72 c-153
140 -371 280 -630 403 -81 39 -148 69 -150 67 -1 -2 24 -26 58 -53 280 -231
560 -674 593 -939 l7 -57 -51 5 c-28 4 -74 9 -103 12 -127 13 -321 100 -523
233 -41 27 -75 47 -75 45 0 -10 168 -254 216 -314 54 -67 145 -153 315 -298
142 -120 214 -223 226 -322 3 -27 3 -59 0 -72 l-7 -25 -67 33 c-38 17 -126 52
-198 77 -71 25 -139 49 -150 53 -11 4 21 -32 72 -80 87 -82 196 -214 228 -276
l14 -28 -97 43 c-172 75 -515 185 -579 185 -9 0 10 -17 43 -38 113 -73 260
-201 407 -351 81 -84 147 -155 147 -159 0 -4 -33 -24 -74 -45 -176 -90 -399
-252 -526 -381 l-65 -67 91 40 c193 84 352 121 511 121 122 -1 171 -9 261 -46
54 -23 80 -44 54 -44 -24 0 -200 -129 -269 -197 -70 -69 -193 -219 -193 -236
0 -4 15 2 32 13 58 34 242 89 369 111 190 33 401 20 599 -37 24 -7 23 -6 -9
37 -19 24 -55 65 -80 92 -25 26 -40 47 -33 47 6 0 48 -13 93 -30 148 -54 271
-135 305 -203 14 -26 14 -31 -3 -50 -36 -42 -70 -69 -168 -134 -182 -120 -203
-135 -260 -185 -30 -27 -76 -77 -101 -109 -45 -59 -124 -187 -124 -201 0 -4
23 10 51 31 118 89 321 176 486 207 111 21 245 15 323 -15 l56 -21 -61 -62
c-33 -35 -75 -83 -91 -108 -30 -43 -104 -176 -104 -185 0 -3 31 16 69 40 178
115 392 156 507 97 61 -31 69 -46 68 -122 0 -103 -39 -172 -176 -316 -177
-187 -218 -266 -218 -419 0 -153 51 -280 159 -397 175 -190 410 -281 948 -368
347 -57 427 -82 497 -161 36 -39 38 -44 34 -96 -8 -97 -56 -131 -365 -254
-278 -111 -363 -158 -459 -253 -124 -124 -174 -245 -174 -421 0 -257 133 -440
421 -579 116 -56 171 -101 207 -170 23 -43 27 -63 26 -131 0 -67 -5 -89 -27
-132 l-27 -52 30 13 c48 20 115 71 144 109 36 47 66 136 66 196 0 48 1 49 34
55 60 11 172 74 214 120 65 71 94 137 99 231 4 66 1 90 -17 140 -29 78 -114
164 -185 188 -71 25 -159 22 -220 -7 -46 -21 -115 -85 -115 -106 0 -4 -3 -15
-6 -23 -4 -11 7 -9 42 9 182 92 337 -112 196 -259 -38 -39 -119 -61 -201 -53
-141 13 -262 107 -301 233 -23 74 -25 110 -9 185 39 188 196 345 418 417 35
12 141 37 235 57 355 74 539 161 653 309 57 75 76 137 71 233 -5 115 -45 193
-151 296 -105 103 -196 156 -463 272 -219 94 -280 129 -332 188 -125 143 42
388 383 559 50 25 111 52 138 61 173 58 368 6 526 -140 39 -36 71 -64 71 -62
0 3 -11 36 -24 74 -34 100 -74 174 -170 317 -104 155 -107 164 -72 194 22 18
39 23 84 23 149 0 353 -104 477 -242 25 -28 45 -48 45 -44 0 3 -11 36 -25 73
-58 152 -156 298 -293 431 -48 47 -81 87 -76 91 19 18 144 41 220 41 146 0
271 -50 404 -162 80 -67 79 -69 30 58 -74 195 -199 347 -342 420 -54 27 -58
41 -25 71 64 60 178 93 317 93 124 0 220 -21 333 -73 72 -33 219 -127 232
-147 3 -5 11 -10 16 -10 15 0 -77 171 -133 247 -27 38 -78 96 -111 131 l-61
62 55 0 c140 0 334 -41 546 -114 84 -30 136 -52 267 -114 5 -3 -19 32 -53 76
-176 228 -407 383 -701 472 -61 19 -106 38 -102 42 18 18 154 38 262 38 126 0
212 -11 307 -39 l61 -18 -24 45 c-51 96 -15 192 120 319 85 80 309 234 464
318 50 28 92 53 92 56 0 7 -207 -24 -307 -46 -147 -33 -384 -126 -434 -171 -8
-8 -19 -14 -22 -14 -11 0 100 167 184 278 44 57 79 104 79 106 0 5 -136 -15
-190 -29 -30 -7 -58 -10 -63 -6 -4 4 2 39 14 77 87 281 352 561 841 887 92 61
166 112 165 113 -4 4 -346 -86 -435 -115 -254 -83 -560 -244 -646 -340 -11
-11 -23 -21 -27 -21 -19 0 56 153 130 265 27 41 44 72 38 68 -92 -53 -329
-263 -407 -359 -122 -150 -164 -183 -233 -184 -35 0 -83 24 -97 49 -15 28 -12
92 5 125 8 15 15 31 15 34 0 9 -133 -9 -167 -23 l-35 -15 7 48 c16 112 68 180
181 237 97 48 207 154 246 235 30 62 48 149 48 226 0 64 32 171 72 243 17 29
58 82 90 117 33 35 57 64 54 64 -3 0 -49 -20 -102 -45 -214 -100 -320 -212
-345 -366 -23 -145 -95 -231 -265 -317 -54 -28 -112 -60 -129 -71 -16 -12 -33
-21 -36 -21 -9 0 -1 78 17 173 17 90 64 227 105 310 16 31 27 57 24 57 -13 0
-174 -106 -230 -150 -73 -59 -162 -150 -203 -208 -17 -24 -47 -86 -68 -138
-21 -51 -38 -93 -39 -91 -1 1 3 54 8 118 8 96 7 133 -7 207 -9 49 -16 116 -16
148 1 159 121 331 327 472 107 72 123 92 185 222 76 158 208 279 409 375 l74
36 -70 -6 c-305 -26 -505 -124 -650 -321 -50 -67 -57 -73 -141 -109 -114 -48
-229 -106 -276 -139 -21 -14 -38 -23 -38 -20 0 3 15 28 33 57 40 63 140 163
208 209 26 18 49 36 49 39 0 4 -39 -5 -87 -18 -147 -41 -313 -127 -395 -204
l-36 -35 -6 29 c-11 55 -6 193 9 250 25 96 52 137 180 267 68 69 138 150 157
180 71 112 108 260 109 429 1 91 -18 278 -26 269 -2 -2 -13 -41 -25 -88 -47
-177 -143 -338 -274 -456 -33 -31 -124 -98 -202 -149 -207 -138 -238 -178
-280 -368 -30 -139 -49 -168 -174 -265 -52 -40 -116 -94 -142 -119 l-46 -46
24 104 c30 129 55 206 109 335 l43 101 -92 -38 c-50 -22 -122 -57 -160 -79
l-70 -41 -34 33 c-161 153 -52 443 305 808 57 58 103 106 103 107 0 6 -257
-105 -351 -153 -285 -142 -501 -308 -599 -460 l-32 -49 6 58 c3 31 20 99 36
151 17 51 30 96 30 100 0 9 -147 -155 -211 -234 -57 -71 -117 -175 -140 -243
l-16 -47 -34 62 c-33 62 -34 66 -33 178 0 95 5 130 28 205 50 165 159 369 283
533 35 45 60 82 56 82 -5 -1 -55 -37 -113 -82z m-105 -2000 c167 -73 289 -168
348 -270 34 -56 78 -228 60 -228 -5 0 -32 33 -59 72 -97 144 -177 254 -208
287 -43 46 -123 104 -209 152 -85 47 -58 42 68 -13z m339 -685 c8 -35 11 -63
7 -63 -22 0 -122 255 -120 304 1 33 96 -171 113 -241z m1221 -167 c-51 -51
-129 -144 -174 -206 -79 -110 -198 -246 -207 -238 -8 8 87 182 128 236 52 68
160 168 261 244 43 32 80 58 81 58 1 0 -39 -42 -89 -94z m-2110 -26 c164 -110
244 -213 315 -405 37 -100 51 -126 98 -176 30 -32 50 -59 46 -59 -24 0 -116
65 -154 107 -23 26 -70 105 -105 174 -84 170 -131 237 -241 346 -98 99 -90
101 41 13z m2805 -134 c0 -1 -31 -24 -68 -49 -83 -54 -236 -183 -390 -326
l-113 -105 29 -12 c116 -48 122 -255 12 -394 -41 -52 -140 -116 -209 -137
-126 -36 -272 -11 -369 66 l-47 37 -42 -18 c-24 -10 -72 -21 -107 -25 -54 -5
-71 -2 -119 20 -123 56 -172 198 -131 377 18 82 35 103 22 28 -11 -58 1 -148
28 -203 37 -79 133 -133 216 -122 81 11 132 47 351 247 293 269 536 437 812
563 139 64 125 58 125 53z m-3090 -296 c240 -66 380 -152 635 -390 151 -141
190 -167 274 -181 53 -8 68 -7 105 9 81 36 109 108 128 326 11 123 13 135 19
91 14 -96 10 -293 -7 -366 -20 -89 -63 -148 -122 -169 -34 -12 -53 -12 -111
-2 l-70 12 -78 -38 c-75 -35 -82 -37 -183 -37 -95 0 -111 3 -162 28 -139 68
-214 241 -159 363 10 23 29 49 42 58 27 19 38 8 -111 115 -118 86 -240 158
-305 182 l-50 18 40 1 c22 0 74 -9 115 -20z m145 -795 c98 -26 168 -54 200
-79 19 -16 18 -16 -20 -11 -110 16 -189 39 -275 81 -94 45 -95 46 -45 39 28
-4 91 -17 140 -30z m2505 -70 c47 -9 132 -29 190 -45 l105 -30 -105 3 c-80 3
-134 12 -227 38 -68 18 -123 37 -123 41 0 12 67 9 160 -7z m-575 -61 c133 -33
254 -142 298 -269 33 -96 31 -102 -16 -39 -94 124 -364 308 -465 315 -9 1 -1
4 18 8 35 6 108 0 165 -15z m-1292 -26 c-21 -28 -81 -219 -103 -333 -7 -32
-15 -100 -19 -150 l-7 -90 -13 55 c-34 140 -22 280 34 389 26 53 105 154 113
147 3 -3 0 -11 -5 -18z m364 -426 c35 -48 89 -116 122 -152 l59 -65 7 90 c9
119 33 290 46 323 10 26 14 19 82 -113 66 -129 144 -256 166 -269 11 -7 13 4
47 269 15 116 28 212 30 214 15 17 196 -215 246 -312 17 -34 39 -84 48 -112
l17 -50 13 45 c7 25 16 103 19 174 l6 129 56 -79 c143 -201 200 -373 198 -596
l0 -93 -23 65 c-28 81 -48 120 -99 193 -49 69 -43 77 -82 -125 l-29 -147 -22
72 c-11 40 -29 90 -39 112 -25 58 -117 194 -158 233 l-34 33 -7 -73 c-18 -184
-94 -527 -140 -631 l-23 -52 -6 90 c-9 113 -38 234 -79 332 -29 70 -32 75 -45
57 -31 -41 -73 -135 -113 -254 -23 -69 -64 -172 -91 -229 -51 -104 -74 -132
-42 -50 25 64 25 336 -1 479 -10 58 -22 111 -26 118 -11 21 -94 -282 -126
-458 -7 -37 -10 -19 -15 100 -8 159 -30 283 -83 455 -80 256 -99 386 -76 509
l12 66 62 -105 c33 -58 89 -145 123 -193z m1103 -1077 c0 -2 -18 -14 -41 -25
-61 -32 -282 -173 -352 -227 -174 -132 -288 -257 -327 -360 -28 -74 -23 -153
13 -218 27 -48 20 -57 -23 -28 -88 58 -127 134 -117 229 12 112 99 213 318
371 137 98 248 159 400 217 118 46 129 49 129 41z m-1199 -197 c-72 -94 -107
-154 -136 -243 -52 -153 -20 -301 91 -424 67 -75 252 -192 374 -237 75 -27 -5
-12 -103 20 -315 103 -477 262 -477 467 0 67 27 159 65 226 22 38 219 253 232
253 2 0 -19 -28 -46 -62z m1444 -1210 c43 -51 65 -107 65 -168 0 -97 -48 -171
-162 -250 l-63 -44 53 57 c77 82 96 131 96 247 1 83 -3 102 -26 153 -23 49
-24 56 -9 47 11 -5 31 -24 46 -42z"/>
</g>
</svg>
